<svg width="128" height="47" fill="none" xmlns="http://www.w3.org/2000/svg"><path fill-rule="evenodd" clip-rule="evenodd" d="M25.59 15.802c0 1.844-.324 3.54-.972 5.088a12.133 12.133 0 01-2.687 4.013c-1.144 1.127-2.496 2.009-4.057 2.646-1.56.638-3.253.956-5.08.956-1.825 0-3.519-.318-5.08-.956-1.56-.637-2.912-1.52-4.056-2.646A12.133 12.133 0 01.971 20.89C.324 19.342 0 17.646 0 15.802c0-1.844.324-3.54.97-5.088.648-1.548 1.544-2.886 2.688-4.013 1.144-1.127 2.497-2.009 4.057-2.646 1.56-.638 3.254-.956 5.08-.956s3.519.318 5.08.956c1.56.637 2.912 1.52 4.056 2.646a12.133 12.133 0 012.687 4.013c.648 1.548.971 3.244.971 5.088zm-2.636 0c0-1.412-.231-2.755-.694-4.03a10.04 10.04 0 00-2.01-3.363c-.88-.968-1.948-1.736-3.208-2.305-1.26-.57-2.676-.854-4.248-.854s-2.987.285-4.247.854c-1.26.569-2.329 1.337-3.207 2.305a10.04 10.04 0 00-2.012 3.363 11.728 11.728 0 00-.693 4.03c0 1.412.231 2.755.693 4.03a9.853 9.853 0 002.012 3.346c.878.956 1.947 1.719 3.207 2.288 1.26.57 2.675.854 4.247.854s2.988-.285 4.248-.854c1.26-.569 2.329-1.332 3.207-2.288a9.852 9.852 0 002.011-3.347c.463-1.274.694-2.617.694-4.029zm61.564 12.701c-1.89 0-3.437-.32-4.642-.96-1.205-.64-2.162-1.448-2.87-2.425a8.855 8.855 0 01-1.471-3.194c-.272-1.152-.408-2.24-.408-3.263V3.474c0-.17.14-.309.314-.309h1.924c.173 0 .314.139.314.31v14.907c0 1 .118 1.972.354 2.914.236.942.62 1.78 1.152 2.513.531.733 1.234 1.326 2.108 1.78.874.453 1.95.68 3.225.68 1.276 0 2.35-.227 3.225-.68.874-.454 1.577-1.047 2.108-1.78a7.223 7.223 0 001.152-2.513 11.95 11.95 0 00.354-2.914V3.452c0-.17.14-.309.314-.309h1.924c.173 0 .314.138.314.31V18.66c0 1.024-.136 2.111-.408 3.263a8.855 8.855 0 01-1.47 3.194c-.71.977-1.672 1.785-2.888 2.425-1.217.64-2.759.96-4.625.96zM125.38 7.277a5.767 5.767 0 00-.385-.401 6.108 6.108 0 00-1.338-.957c-.827-.441-1.826-.662-2.998-.662-.597 0-1.206.09-1.826.272a5.326 5.326 0 00-1.688.831 4.286 4.286 0 00-1.224 1.408c-.31.566-.465 1.234-.465 2.003 0 .769.149 1.402.448 1.9a4.21 4.21 0 001.189 1.273c.494.35 1.057.639 1.688.865a75.32 75.32 0 001.982.679c.85.271 1.705.566 2.567.882.861.317 1.637.73 2.326 1.239a6.02 6.02 0 011.688 1.934c.437.781.655 1.77.655 2.97 0 1.199-.235 2.234-.706 3.105a6.595 6.595 0 01-1.827 2.155 7.634 7.634 0 01-2.55 1.256c-.953.271-1.912.407-2.877.407-.735 0-1.47-.073-2.205-.22a10.082 10.082 0 01-2.102-.662 8.62 8.62 0 01-1.861-1.12c-.389-.307-.739-.665-1.073-1.014-.348-.362-.512-.493.047-.905.558-.413.482-.365 1.08-.79.598-.425.637-.222.975.17.495.576 1.085 1.13 1.814 1.572.953.577 2.073.865 3.36.865.62 0 1.252-.096 1.895-.288a5.36 5.36 0 001.74-.883 4.905 4.905 0 001.275-1.46c.333-.576.5-1.25.5-2.018 0-.837-.167-1.533-.5-2.087a4.401 4.401 0 00-1.327-1.392 8.166 8.166 0 00-1.895-.933 85.142 85.142 0 00-2.24-.747 29.674 29.674 0 01-2.377-.848 8.052 8.052 0 01-2.102-1.239 5.79 5.79 0 01-1.499-1.883c-.379-.747-.569-1.663-.569-2.75 0-1.153.236-2.149.706-2.986a6.326 6.326 0 011.844-2.07 7.777 7.777 0 012.515-1.188 10.386 10.386 0 012.723-.373c1.654 0 3.067.288 4.238.865.508.25.963.521 1.363.812.27.196.207.119.736.616s.505.678.007 1.06c-.497.383-.331.3-.861.685-.531.386-.758.177-.866.052z" fill="#414141"/><path d="M53.994 11.045c0 .607.469 1.106 1.07 1.165h.236a1.18 1.18 0 001.07-1.165 1.18 1.18 0 00-1.188-1.17 1.18 1.18 0 00-1.188 1.17zM43.3 10.997a1.18 1.18 0 00-1.186-1.1 1.18 1.18 0 00-1.188 1.17c0 .633.51 1.148 1.147 1.17h.083a1.18 1.18 0 001.144-1.1v-.14z" fill="#414141"/><path d="M61.803.362c.29-.216.474-.353.618-.362h.028a.212.212 0 01.104.035c.627.416-4.907 5.567-12.291 6.25l-.05.012c-.126.03-.253.117-.253.219v6.65c0 2.21-2.6 5.27-2.6 5.27V6.526a.213.213 0 00-.087-.166.66.66 0 00-.203-.063 2.508 2.508 0 00-.09-.019C39.632 5.568 34.136.45 34.762.035A.207.207 0 0134.864 0h.029c.144.009.328.146.617.362 1.181.88 4.109 3.062 13.147 3.062S60.622 1.242 61.803.362zm-6.847 27.636c0 .707.214 1.721.617 1.721.402 0 .616-1.014.616-1.721 0-.707-.214-.773-.616-.773-.403 0-.617.066-.617.773zm-1.68 0c0 .707.214 1.721.616 1.721s.616-1.014.616-1.721c0-.707-.214-.773-.616-.773s-.616.066-.616.773zm-1.683 0c0 .707.214 1.721.617 1.721.402 0 .616-1.014.616-1.721 0-.707-.214-.773-.616-.773-.403 0-.617.066-.617.773zm-5.874-.115c-.023-.6-.235-.658-.615-.658-.402 0-.616.066-.616.773 0 .703.212 1.71.61 1.721h.013c.375-.01.585-.905.608-1.597v-.24zm-1.679-.001c-.023-.599-.235-.657-.614-.657-.403 0-.617.066-.617.773 0 .703.212 1.71.61 1.721h.013c.375-.01.585-.905.608-1.597v-.24zm-1.68-.006c-.025-.593-.237-.65-.615-.65-.402 0-.616.065-.616.772 0 .703.212 1.71.61 1.721h.013c.374-.01.583-.899.607-1.59v-.253zM10.375 44.007c0 .572-.098 1.071-.293 1.499-.195.425-.472.75-.83.974-.358.225-.776.337-1.254.337a2.3 2.3 0 01-1.241-.337 2.278 2.278 0 01-.843-.966c-.198-.42-.3-.905-.305-1.455v-.421c0-.561.1-1.057.297-1.488.198-.43.478-.759.839-.986.363-.23.778-.345 1.245-.345.475 0 .893.114 1.254.341.363.225.643.552.838.982.195.428.293.926.293 1.496v.369zm-.777-.377c0-.693-.141-1.223-.424-1.592-.282-.371-.677-.557-1.184-.557-.494 0-.883.186-1.168.557-.282.369-.427.882-.436 1.54v.429c0 .67.143 1.198.428 1.583.287.382.682.573 1.184.573.505 0 .896-.18 1.172-.54.277-.364.42-.884.428-1.56v-.433zm7.722 3.107h-.786v-2.698h-2.987v2.698h-.782V40.9h.782v2.51h2.987V40.9h.786v5.837zm7.16-5.837v5.837h-.782v-5.204h-2.124l-.106 2.313c-.04.775-.122 1.358-.244 1.748-.12.39-.296.678-.53.862-.233.182-.545.275-.935.28h-.257v-.629l.163-.008c.252-.018.446-.099.582-.24.136-.145.239-.373.31-.686.07-.313.12-.794.15-1.443l.122-2.83h3.65zm5.984 4.313H27.98l-.557 1.524h-.806L28.88 40.9h.683l2.267 5.837h-.802l-.565-1.524zm-2.247-.633h2.015l-1.01-2.73-1.005 2.73zm9.366-3.68h.782v5.837h-.782v-4.498l-2.918 4.498h-.785V40.9h.785v4.498l2.918-4.498zm-.22-1.452a.99.99 0 01-.337.782c-.223.195-.516.293-.88.293-.363 0-.657-.1-.883-.297a.985.985 0 01-.337-.778h.614c0 .187.052.334.155.441.103.104.254.157.452.157.19 0 .337-.053.443-.157.109-.104.163-.251.163-.44h.61zm8.199 7.289h-.786v-2.698H41.79v2.698h-.782V40.9h.782v2.51h2.987V40.9h.786v5.837zm4.055-2.177H47.63v-.606h1.986v.606zm6.631-.553c0 .572-.098 1.071-.293 1.499-.196.425-.472.75-.83.974-.359.225-.777.337-1.254.337a2.3 2.3 0 01-1.241-.337 2.278 2.278 0 01-.843-.966c-.198-.42-.3-.905-.305-1.455v-.421c0-.561.099-1.057.297-1.488a2.23 2.23 0 01.838-.986c.364-.23.78-.345 1.246-.345.475 0 .892.114 1.253.341.364.225.643.552.839.982.195.428.293.926.293 1.496v.369zm-.778-.377c0-.693-.14-1.223-.423-1.592-.282-.371-.677-.557-1.184-.557-.494 0-.883.186-1.168.557-.282.369-.428.882-.436 1.54v.429c0 .67.143 1.198.428 1.583.287.382.682.573 1.184.573.505 0 .895-.18 1.172-.54.277-.364.42-.884.427-1.56v-.433zm6.782-2.097h-2.857v1.748h1.473c.619.008 1.102.164 1.45.469.346.305.52.719.52 1.243 0 .526-.175.946-.525 1.259-.35.312-.827.474-1.432.485H58.61V40.9h3.642v.633zm-2.857 2.381v2.193h1.429c.388 0 .689-.101.903-.304.217-.203.326-.476.326-.818 0-.329-.105-.588-.314-.778-.206-.19-.5-.287-.883-.293h-1.46zm6.501.538v2.285h-.781V40.9H67.3c.649 0 1.156.163 1.522.489.37.326.554.757.554 1.295 0 .566-.18 1.003-.542 1.31-.358.305-.872.458-1.542.458h-1.396zm0-.63H67.3c.418 0 .738-.096.96-.289.223-.195.334-.475.334-.841 0-.348-.11-.626-.333-.834-.223-.209-.528-.317-.916-.325h-1.449v2.29zm8.406 1.391h-2.483l-.558 1.524h-.805l2.262-5.837h.684l2.267 5.837h-.802l-.565-1.524zm-2.247-.633h2.015l-1.01-2.73-1.005 2.73zm8.67-2.113a.89.89 0 00-.346-.738c-.228-.184-.55-.276-.964-.276-.348 0-.64.095-.875.284a.86.86 0 00-.35.698h-.782c0-.31.086-.588.257-.834.173-.246.415-.437.724-.573a2.46 2.46 0 011.026-.209c.662 0 1.176.147 1.542.441.367.292.55.698.55 1.22 0 .27-.085.515-.253.737a1.691 1.691 0 01-.704.525c.698.23 1.046.686 1.046 1.367 0 .524-.198.94-.594 1.247-.396.307-.925.46-1.587.46-.394 0-.752-.067-1.075-.204a1.737 1.737 0 01-.749-.589 1.531 1.531 0 01-.268-.906h.781c0 .307.124.564.37.77.248.203.56.304.94.304.427 0 .766-.097 1.018-.292a.927.927 0 00.383-.774c0-.684-.43-1.033-1.29-1.046h-.733v-.634h.728c.397-.008.697-.096.9-.264.204-.169.305-.407.305-.714zm7.685 1.54c0 .572-.097 1.071-.293 1.499-.195.425-.472.75-.83.974-.358.225-.776.337-1.253.337-.467 0-.88-.112-1.242-.337a2.277 2.277 0 01-.842-.966c-.198-.42-.3-.905-.305-1.455v-.421c0-.561.099-1.057.297-1.488a2.23 2.23 0 01.838-.986c.364-.23.779-.345 1.245-.345.475 0 .893.114 1.254.341.364.225.643.552.838.982.196.428.293.926.293 1.496v.369zm-.777-.377c0-.693-.141-1.223-.423-1.592-.282-.371-.677-.557-1.184-.557-.494 0-.884.186-1.168.557-.283.369-.428.882-.436 1.54v.429c0 .67.142 1.198.427 1.583.288.382.683.573 1.185.573.504 0 .895-.18 1.172-.54.276-.364.419-.884.427-1.56v-.433zm3.167 3.107V40.9h1.938c.643 0 1.126.13 1.449.392.326.262.488.65.488 1.163 0 .273-.078.514-.236.726-.157.208-.371.37-.643.485.32.088.573.256.757.505.188.246.281.54.281.882 0 .524-.172.935-.517 1.235-.344.3-.831.449-1.46.449H90.8zm.782-2.73v2.1h1.29c.364 0 .65-.092.86-.276.21-.187.317-.444.317-.77 0-.703-.388-1.054-1.164-1.054h-1.303zm0-.618h1.18c.342 0 .615-.084.819-.252a.838.838 0 00.309-.686c0-.32-.095-.553-.285-.697-.19-.148-.479-.221-.867-.221h-1.156v1.856zm8.902 1.824h-2.482l-.558 1.524h-.806l2.263-5.837h.684l2.267 5.837h-.802l-.566-1.524zm-2.246-.633h2.014l-1.009-2.73-1.005 2.73zm10.184 2.157h-.786v-2.698h-2.987v2.698h-.781V40.9h.781v2.51h2.987V40.9h.786v5.837zm6.342-5.837h.782v5.837h-.782v-4.498l-2.918 4.498h-.785V40.9h.785v4.498l2.918-4.498zm6.774 3.139h-2.568v2.068h2.983v.63h-3.765V40.9h3.724v.633h-2.942v1.876h2.568v.63z" fill="#414141"/></svg>