<svg xmlns="http://www.w3.org/2000/svg" width="45" height="45" fill="none" viewBox="0 0 45 45">
  <g clip-path="url(#clip0_121_156)">
    <path fill="#fff" d="M28.521 13.492l1.016-3.793a1 1 0 00-.707-1.224L23.177 6.96a1 1 0 00-1.225.707l-1.016 3.792-1.397-.374a1 1 0 00-1.072.384l-3.526 4.933a1.001 1.001 0 00-.177.444l-2.37 17.03a1 1 0 00.732 1.104l10.399 2.787a1 1 0 001.185-.59l6.463-15.934a1 1 0 00.069-.473l-.588-6.035a1 1 0 00-.736-.87l-1.397-.373zm-4.818-4.207l3.51.94-.73 2.72-3.51-.94.73-2.72zm4.257 6.24a1 1 0 01.737.87l.297 3.051L17.55 16.38l1.783-2.495a1 1 0 011.073-.384l7.554 2.024zm-12.488 17.9a1 1 0 01-.731-1.104l1.946-13.989 12.078 3.237-5.309 13.088a1 1 0 01-1.185.59l-6.799-1.822zM10.146 10.688L8.407 9.494a25.614 25.614 0 00-3.63 7.893 25.443 25.443 0 00-.448 11.336l2.074-.386a23.35 23.35 0 01.412-10.404 23.512 23.512 0 013.331-7.245zM13.503 13.248l-1.753-1.173a21.472 21.472 0 00-2.897 6.404 21.247 21.247 0 00-.336 9.705l2.069-.41a19.155 19.155 0 01.304-8.75 19.365 19.365 0 012.613-5.776zM40.354 18.054l-2.102.165a23.51 23.51 0 01-.738 7.94 23.35 23.35 0 01-4.845 9.215l1.602 1.372c2.501-2.921 4.277-6.3 5.28-10.042.76-2.837 1.03-5.747.803-8.65zM36.17 18.618l-2.105.14c.14 2.112-.07 4.235-.626 6.308a19.154 19.154 0 01-4.111 7.73l1.587 1.39a21.248 21.248 0 004.561-8.574c.616-2.297.85-4.65.694-6.994z"/>
  </g>
  <defs>
    <clipPath id="clip0_121_156">
      <path fill="#fff" d="M0 0h36v36H0z" transform="rotate(15 4.718 35.839)"/>
    </clipPath>
  </defs>
</svg>
