<svg width="24" height="23" viewBox="0 0 24 23" fill="none" xmlns="http://www.w3.org/2000/svg">
    <path d="M8.70079 8.6727L13.4971 3.87526L13.5042 3.86819L13.5044 3.86844C15.3977 2.2112 18.2804 2.29791 20.0712 4.09235C21.8674 5.89222 21.9581 8.76054 20.3033 10.6598L20.2966 10.6675L20.2963 10.6673L12.1063 18.869L12.0002 18.9753L11.894 18.869L3.70402 10.6661L3.69681 10.6589L3.69707 10.6587C2.04351 8.76064 2.13396 5.88876 3.92807 4.09461L8.70079 8.6727ZM8.70079 8.6727L7.26214 7.23507L10.4519 4.04301L10.5674 3.92742L10.4424 3.8222L10.3467 3.7417L10.3468 3.74167L10.3441 3.73953C8.44729 2.21606 5.67539 2.34612 3.9281 4.09458L8.70079 8.6727ZM11.9012 2.3955L12.0014 2.48533L12.1016 2.39542C14.7831 -0.0121879 18.9274 0.0678333 21.5108 2.65574C24.0925 5.24426 24.1823 9.3658 21.7832 12.0555L11.999 21.8535L2.21712 12.0555C-0.182014 9.36574 -0.0908854 5.23731 2.48943 2.65585C5.07529 0.0711777 9.21155 -0.0156029 11.9012 2.3955Z" fill="#848396" stroke="#848396" stroke-width="0.3"/>
</svg>