<svg width="45" height="45" viewBox="0 0 45 45" fill="none" xmlns="http://www.w3.org/2000/svg">
<g clip-path="url(#clip0)">
<path d="M28.5213 13.4915L29.5373 9.69949C29.6803 9.16602 29.3637 8.61769 28.8302 8.47474L23.1772 6.96001C22.6437 6.81706 22.0953 7.13365 21.9524 7.66711L20.9363 11.4592L19.5394 11.0849C19.1368 10.977 18.7095 11.1302 18.4671 11.4693L14.9411 16.4024C14.8472 16.5339 14.7865 16.6861 14.7642 16.8461L12.3943 33.8764C12.3247 34.3762 12.6385 34.8495 13.1259 34.9801L23.5247 37.7665C24.0121 37.8971 24.5205 37.644 24.7102 37.1764L31.1729 21.2428C31.2336 21.0931 31.2571 20.9309 31.2415 20.7701L30.6545 14.7349C30.6142 14.32 30.3207 13.9737 29.918 13.8658L28.5213 13.4915ZM23.7028 9.28463L27.2127 10.2251L26.4838 12.9456L22.9738 12.0051L23.7028 9.28463ZM27.9602 15.525C28.3628 15.6329 28.6563 15.9792 28.6967 16.3941L28.9936 19.4462L17.55 16.3799L19.3332 13.8851C19.5756 13.546 20.0029 13.3928 20.4055 13.5007L27.9602 15.525ZM15.4721 33.425C14.9847 33.2944 14.6709 32.8211 14.7405 32.3213L16.6871 18.3324L28.7646 21.5686L23.4561 34.6566C23.2664 35.1242 22.758 35.3773 22.2706 35.2466L15.4721 33.425Z" fill="white"/>
<path d="M10.146 10.6882L8.40715 9.49421C6.75917 11.8942 5.5381 14.5496 4.77791 17.3867C3.77528 21.1286 3.62439 24.9427 4.32941 28.7232L6.40301 28.3365C5.75624 24.8681 5.89496 21.3678 6.81541 17.9326C7.51344 15.3276 8.63401 12.8902 10.146 10.6882Z" fill="white"/>
<path d="M13.5026 13.2482L11.7497 12.0748C10.4432 14.0264 9.4686 16.1809 8.85293 18.4786C7.99132 21.6942 7.87821 24.9596 8.5166 28.184L10.5858 27.7743C10.0107 24.8694 10.1131 21.9255 10.8904 19.0246C11.4461 16.9507 12.3249 15.0072 13.5026 13.2482Z" fill="white"/>
<path d="M40.3544 18.0544L38.2515 18.219C38.4599 20.882 38.2117 23.5531 37.5136 26.1582C36.5932 29.5934 34.9632 32.6941 32.6689 35.3744L34.2713 36.7461C36.7721 33.8246 38.5485 30.446 39.5511 26.7041C40.3113 23.8671 40.5816 20.9569 40.3544 18.0544Z" fill="white"/>
<path d="M36.1696 18.6181L34.0648 18.7579C34.2051 20.8701 33.9945 22.9926 33.4388 25.0664C32.6615 27.9673 31.2783 30.568 29.3277 32.7962L30.9149 34.1857C33.0799 31.7124 34.6147 28.828 35.4763 25.6124C36.0919 23.3147 36.3252 20.9615 36.1696 18.6181Z" fill="white"/>
</g>
<defs>
<clipPath id="clip0">
<rect width="36" height="36" fill="white" transform="translate(9.43652) rotate(15)"/>
</clipPath>
</defs>
</svg>
